<svg width="20" height="20" viewBox="0 0 20 20" fill="none" xmlns="http://www.w3.org/2000/svg">
<path fill-rule="evenodd" clip-rule="evenodd" d="M3.4782 1.42692C4.39183 0.513277 5.63099 0 6.92307 0C8.21515 0 9.45431 0.513277 10.3679 1.42692C11.2816 2.34055 11.7949 3.57971 11.7949 4.8718C11.7949 6.16388 11.2816 7.40304 10.3679 8.31667C9.45431 9.23031 8.21515 9.74359 6.92307 9.74359C5.63099 9.74359 4.39183 9.23031 3.4782 8.31667C2.56456 7.40304 2.05128 6.16388 2.05128 4.8718C2.05128 3.57971 2.56456 2.34055 3.4782 1.42692ZM6.92307 1.53846C6.03902 1.53846 5.19117 1.88965 4.56605 2.51477C3.94093 3.13989 3.58974 3.98774 3.58974 4.8718C3.58974 5.75585 3.94093 6.6037 4.56605 7.22882C5.19117 7.85394 6.03902 8.20513 6.92307 8.20513C7.80713 8.20513 8.65497 7.85394 9.28009 7.22882C9.90521 6.6037 10.2564 5.75585 10.2564 4.8718C10.2564 3.98774 9.90521 3.13989 9.28009 2.51477C8.65497 1.88965 7.80713 1.53846 6.92307 1.53846ZM13.3574 0.711765C13.4627 0.300207 13.8818 0.0519963 14.2934 0.157372C15.3413 0.425687 16.2701 1.03515 16.9334 1.88967C17.5967 2.7442 17.9568 3.79518 17.9568 4.87692C17.9568 5.95867 17.5967 7.00965 16.9334 7.86417C16.2701 8.7187 15.3413 9.32816 14.2934 9.59647C13.8818 9.70185 13.4627 9.45364 13.3574 9.04208C13.252 8.63052 13.5002 8.21147 13.9118 8.10609C14.6288 7.92251 15.2643 7.50551 15.7181 6.92083C16.172 6.33616 16.4183 5.61706 16.4183 4.87692C16.4183 4.13678 16.172 3.41769 15.7181 2.83302C15.2643 2.24834 14.6288 1.83134 13.9118 1.64776C13.5002 1.54238 13.252 1.12332 13.3574 0.711765ZM4.87179 13.8462C3.98774 13.8462 3.13989 14.1973 2.51477 14.8225C1.88965 15.4476 1.53846 16.2954 1.53846 17.1795V19.2308C1.53846 19.6556 1.19406 20 0.76923 20C0.344396 20 0 19.6556 0 19.2308V17.1795C0 15.8874 0.513276 14.6482 1.42691 13.7346C2.34055 12.821 3.57971 12.3077 4.87179 12.3077H8.97435C10.2664 12.3077 11.5056 12.821 12.4192 13.7346C13.3329 14.6482 13.8461 15.8874 13.8461 17.1795V19.2308C13.8461 19.6556 13.5017 20 13.0769 20C12.6521 20 12.3077 19.6556 12.3077 19.2308V17.1795C12.3077 16.2954 11.9565 15.4476 11.3314 14.8225C10.7063 14.1973 9.85841 13.8462 8.97435 13.8462H4.87179ZM15.409 13.0385C15.5152 12.6271 15.9348 12.3798 16.3461 12.486C17.3873 12.7548 18.3102 13.3605 18.9711 14.2086C19.6321 15.0568 19.9938 16.0998 20 17.1751L20 17.1795L20 19.2308C20 19.6556 19.6556 20 19.2308 20C18.8059 20 18.4615 19.6556 18.4615 19.2308V17.1817C18.4568 16.4468 18.2093 15.734 17.7576 15.1542C17.3054 14.5739 16.6739 14.1595 15.9615 13.9756C15.5502 13.8694 15.3028 13.4498 15.409 13.0385Z" fill="#94A3B8"/>
</svg>
