<svg width="20" height="20" viewBox="0 0 20 20" fill="none" xmlns="http://www.w3.org/2000/svg">
<path fill-rule="evenodd" clip-rule="evenodd" d="M11.4301 0.114885C11.6568 0.255044 11.7949 0.502633 11.7949 0.769232V4.46012L17.6062 8.33432C17.8202 8.47699 17.9487 8.71717 17.9487 8.97436V18.4615H19.2308C19.6556 18.4615 20 18.8059 20 19.2308C20 19.6556 19.6556 20 19.2308 20H0.769231C0.344396 20 0 19.6556 0 19.2308C0 18.8059 0.344396 18.4615 0.769231 18.4615H2.05128V4.8718C2.05128 4.58043 2.2159 4.31408 2.4765 4.18377L10.6816 0.0812106C10.9201 -0.0380156 11.2033 -0.0252741 11.4301 0.114885ZM3.58974 18.4615H10.2564V4.8823C10.2563 4.87483 10.2563 4.86736 10.2564 4.85988V2.01387L3.58974 5.34721V18.4615ZM11.7949 6.30912V18.4615H16.4103V9.38604L11.7949 6.30912ZM6.92308 6.15385C7.34791 6.15385 7.69231 6.49824 7.69231 6.92308V6.93333C7.69231 7.35817 7.34791 7.70257 6.92308 7.70257C6.49824 7.70257 6.15385 7.35817 6.15385 6.93333V6.92308C6.15385 6.49824 6.49824 6.15385 6.92308 6.15385ZM6.92308 9.23077C7.34791 9.23077 7.69231 9.57517 7.69231 10V10.0103C7.69231 10.4351 7.34791 10.7795 6.92308 10.7795C6.49824 10.7795 6.15385 10.4351 6.15385 10.0103V10C6.15385 9.57517 6.49824 9.23077 6.92308 9.23077ZM6.92308 12.3077C7.34791 12.3077 7.69231 12.6521 7.69231 13.0769V13.0872C7.69231 13.512 7.34791 13.8564 6.92308 13.8564C6.49824 13.8564 6.15385 13.512 6.15385 13.0872V13.0769C6.15385 12.6521 6.49824 12.3077 6.92308 12.3077ZM6.92308 15.3846C7.34791 15.3846 7.69231 15.729 7.69231 16.1538V16.1641C7.69231 16.5889 7.34791 16.9333 6.92308 16.9333C6.49824 16.9333 6.15385 16.5889 6.15385 16.1641V16.1538C6.15385 15.729 6.49824 15.3846 6.92308 15.3846Z" fill="#94A3B8"/>
</svg>
