<svg width="18" height="20" viewBox="0 0 18 20" fill="none" xmlns="http://www.w3.org/2000/svg">
<path fill-rule="evenodd" clip-rule="evenodd" d="M4.88571 0C5.31176 0 5.65714 0.344396 5.65714 0.769231V2.05128H12.3429V0.769231C12.3429 0.344396 12.6882 0 13.1143 0C13.5403 0 13.8857 0.344396 13.8857 0.769231V2.05128H15.1714C15.9216 2.05128 16.6411 2.34844 17.1715 2.87739C17.702 3.40634 18 4.12375 18 4.8718V17.1795C18 17.9275 17.702 18.6449 17.1715 19.1739C16.6411 19.7028 15.9216 20 15.1714 20H2.82857C2.07839 20 1.35893 19.7028 0.828469 19.1739C0.298009 18.6449 0 17.9275 0 17.1795V4.8718C0 4.12375 0.298009 3.40634 0.828469 2.87739C1.35893 2.34844 2.07839 2.05128 2.82857 2.05128H4.11429V0.769231C4.11429 0.344396 4.45967 0 4.88571 0ZM4.11429 3.58974H2.82857C2.48758 3.58974 2.16055 3.72482 1.91943 3.96525C1.67832 4.20568 1.54286 4.53177 1.54286 4.8718V8.20513H16.4571V4.8718C16.4571 4.53177 16.3217 4.20568 16.0806 3.96525C15.8394 3.72482 15.5124 3.58974 15.1714 3.58974H13.8857V4.8718C13.8857 5.29663 13.5403 5.64103 13.1143 5.64103C12.6882 5.64103 12.3429 5.29663 12.3429 4.8718V3.58974H5.65714V4.8718C5.65714 5.29663 5.31176 5.64103 4.88571 5.64103C4.45967 5.64103 4.11429 5.29663 4.11429 4.8718V3.58974ZM16.4571 9.74359H1.54286V17.1795C1.54286 17.5195 1.67832 17.8456 1.91943 18.086C2.16055 18.3265 2.48758 18.4615 2.82857 18.4615H15.1714C15.5124 18.4615 15.8394 18.3265 16.0806 18.086C16.3217 17.8456 16.4571 17.5195 16.4571 17.1795V9.74359ZM4.11429 13.0769C4.11429 12.6521 4.45967 12.3077 4.88571 12.3077H6.94286C7.36891 12.3077 7.71429 12.6521 7.71429 13.0769V15.1282C7.71429 15.553 7.36891 15.8974 6.94286 15.8974H4.88571C4.45967 15.8974 4.11429 15.553 4.11429 15.1282V13.0769ZM5.65714 13.8462V14.359H6.17143V13.8462H5.65714Z" fill="#94A3B8"/>
</svg>
