<svg width="12" height="18" viewBox="0 0 12 18" fill="none" xmlns="http://www.w3.org/2000/svg">
<path fill-rule="evenodd" clip-rule="evenodd" d="M2.99158 1.30134C3.78946 0.468104 4.87162 0 6 0C7.12838 0 8.21054 0.468104 9.00842 1.30134C9.8063 2.13457 10.2545 3.26467 10.2545 4.44304C10.2545 5.6214 9.8063 6.75151 9.00842 7.58474C8.21054 8.41797 7.12838 8.88608 6 8.88608C4.87162 8.88608 3.78946 8.41797 2.99158 7.58474C2.1937 6.75151 1.74545 5.6214 1.74545 4.44304C1.74545 3.26467 2.1937 2.13457 2.99158 1.30134ZM6 1.59494C5.27668 1.59494 4.58299 1.895 4.07153 2.42913C3.56006 2.96325 3.27273 3.68767 3.27273 4.44304C3.27273 5.1984 3.56006 5.92283 4.07153 6.45695C4.58299 6.99107 5.27668 7.29114 6 7.29114C6.72332 7.29114 7.41701 6.99107 7.92847 6.45695C8.43994 5.92283 8.72727 5.1984 8.72727 4.44304C8.72727 3.68767 8.43994 2.96325 7.92847 2.42913C7.41701 1.895 6.72332 1.59494 6 1.59494ZM4.25455 12.5316C3.53123 12.5316 2.83754 12.8317 2.32607 13.3658C1.81461 13.9 1.52727 14.6244 1.52727 15.3797V17.2025C1.52727 17.643 1.18538 18 0.763636 18C0.341892 18 0 17.643 0 17.2025V15.3797C0 14.2014 0.448245 13.0713 1.24613 12.238C2.04401 11.4048 3.12617 10.9367 4.25455 10.9367H7.74545C8.87383 10.9367 9.95599 11.4048 10.7539 12.238C11.5518 13.0713 12 14.2014 12 15.3797V17.2025C12 17.643 11.6581 18 11.2364 18C10.8146 18 10.4727 17.643 10.4727 17.2025V15.3797C10.4727 14.6244 10.1854 13.9 9.67393 13.3658C9.16246 12.8317 8.46877 12.5316 7.74545 12.5316H4.25455Z" fill="#94A3B8"/>
</svg>
