<svg width="16" height="18" viewBox="0 0 16 18" fill="none" xmlns="http://www.w3.org/2000/svg">
<path fill-rule="evenodd" clip-rule="evenodd" d="M4.34286 0C4.72157 0 5.02857 0.309957 5.02857 0.692308V1.84615H10.9714V0.692308C10.9714 0.309957 11.2784 0 11.6571 0C12.0359 0 12.3429 0.309957 12.3429 0.692308V1.84615H13.4857C14.1525 1.84615 14.7921 2.1136 15.2636 2.58965C15.7351 3.06571 16 3.71137 16 4.38462V15.4615C16 16.1348 15.7351 16.7804 15.2636 17.2565C14.7921 17.7326 14.1525 18 13.4857 18H2.51429C1.84746 18 1.20794 17.7326 0.736417 17.2565C0.264897 16.7804 0 16.1348 0 15.4615V4.38462C0 3.71137 0.264897 3.06571 0.736417 2.58965C1.20794 2.1136 1.84746 1.84615 2.51429 1.84615H3.65714V0.692308C3.65714 0.309957 3.96415 0 4.34286 0ZM3.65714 3.23077H2.51429C2.21118 3.23077 1.92049 3.35233 1.70616 3.56872C1.49184 3.78511 1.37143 4.0786 1.37143 4.38462V7.38462H14.6286V4.38462C14.6286 4.0786 14.5082 3.78511 14.2938 3.56872C14.0795 3.35233 13.7888 3.23077 13.4857 3.23077H12.3429V4.38462C12.3429 4.76697 12.0359 5.07692 11.6571 5.07692C11.2784 5.07692 10.9714 4.76697 10.9714 4.38462V3.23077H5.02857V4.38462C5.02857 4.76697 4.72157 5.07692 4.34286 5.07692C3.96415 5.07692 3.65714 4.76697 3.65714 4.38462V3.23077ZM14.6286 8.76923H1.37143V15.4615C1.37143 15.7676 1.49184 16.061 1.70616 16.2774C1.92049 16.4938 2.21118 16.6154 2.51429 16.6154H13.4857C13.7888 16.6154 14.0795 16.4938 14.2938 16.2774C14.5082 16.061 14.6286 15.7676 14.6286 15.4615V8.76923ZM3.65714 11.7692C3.65714 11.3869 3.96415 11.0769 4.34286 11.0769H6.17143C6.55014 11.0769 6.85714 11.3869 6.85714 11.7692V13.6154C6.85714 13.9977 6.55014 14.3077 6.17143 14.3077H4.34286C3.96415 14.3077 3.65714 13.9977 3.65714 13.6154V11.7692ZM5.02857 12.4615V12.9231H5.48571V12.4615H5.02857Z" fill="#94A3B8"/>
</svg>
