<svg width="18" height="18" viewBox="0 0 18 18" fill="none" xmlns="http://www.w3.org/2000/svg">
<path fill-rule="evenodd" clip-rule="evenodd" d="M10.9367 0.797468C10.9367 0.357039 11.2937 0 11.7342 0H12.1899C13.7308 0 15.2086 0.612137 16.2983 1.70175C17.3879 2.79136 18 4.26919 18 5.81013C18 5.92124 17.9968 6.03203 17.9905 6.14237C17.9968 6.1826 18 6.22383 18 6.26582C18 6.35833 17.9842 6.44716 17.9553 6.52977C17.7961 7.8054 17.2168 8.99992 16.2983 9.91851C15.7769 10.4398 15.1667 10.8519 14.5033 11.1398L15.0501 12.7803C15.1588 12.7665 15.2689 12.7595 15.3797 12.7595C16.0747 12.7595 16.7412 13.0356 17.2325 13.5269C17.7239 14.0183 18 14.6848 18 15.3797C18 16.0747 17.7239 16.7412 17.2325 17.2325C16.7412 17.7239 16.0747 18 15.3797 18C14.6848 18 14.0183 17.7239 13.5269 17.2325C13.0356 16.7412 12.7595 16.0747 12.7595 15.3797C12.7595 14.6848 13.0356 14.0183 13.5269 13.5269C13.5495 13.5044 13.5724 13.4823 13.5957 13.4607L12.9649 11.5684C12.7094 11.6027 12.4505 11.6203 12.1899 11.6203H9.752C9.75197 11.6203 9.75204 11.6203 9.752 11.6203C9.39551 11.6203 9.04135 11.5899 8.69337 11.5303L8.04991 13.4607C8.07317 13.4823 8.09608 13.5044 8.11862 13.5269C8.61001 14.0183 8.88608 14.6848 8.88608 15.3797C8.88608 16.0747 8.61001 16.7412 8.11862 17.2325C7.62723 17.7239 6.96076 18 6.26582 18C5.57089 18 4.90442 17.7239 4.41302 17.2325C3.92163 16.7412 3.64557 16.0747 3.64557 15.3797C3.64557 14.6848 3.92163 14.0183 4.41302 13.5269C4.90442 13.0356 5.57089 12.7595 6.26582 12.7595C6.37664 12.7595 6.48672 12.7665 6.5955 12.7803L7.16794 11.063C6.78992 10.8919 6.42787 10.6828 6.08766 10.4376C5.02062 9.66862 4.22263 8.5833 3.80678 7.33548L2.50113 3.41772H0.797468C0.357039 3.41772 0 3.06068 0 2.62025C0 2.17982 0.357039 1.82278 0.797468 1.82278H3.07595C3.41922 1.82278 3.72398 2.04245 3.83251 2.36812L4.86571 5.46835H10.9367V0.797468ZM5.40412 7.06329C5.73139 7.89584 6.29167 8.61868 7.0202 9.14374C7.81563 9.71702 8.7713 10.0254 9.75179 10.0253H12.1899C13.3078 10.0253 14.38 9.58122 15.1705 8.79072C15.6577 8.30349 16.0133 7.70928 16.2145 7.06329H5.40412ZM16.3912 5.46835H12.5316V1.6088C13.5245 1.68953 14.4609 2.11999 15.1705 2.82954C15.88 3.53908 16.3105 4.47554 16.3912 5.46835ZM6.26582 14.3544C5.99389 14.3544 5.7331 14.4625 5.54081 14.6547C5.34853 14.847 5.24051 15.1078 5.24051 15.3797C5.24051 15.6517 5.34853 15.9125 5.54081 16.1048C5.7331 16.297 5.99389 16.4051 6.26582 16.4051C6.53775 16.4051 6.79855 16.297 6.99083 16.1048C7.18312 15.9125 7.29114 15.6517 7.29114 15.3797C7.29114 15.1078 7.18312 14.847 6.99083 14.6547C6.79855 14.4625 6.53775 14.3544 6.26582 14.3544ZM15.3797 14.3544C15.1078 14.3544 14.847 14.4625 14.6547 14.6547C14.4625 14.847 14.3544 15.1078 14.3544 15.3797C14.3544 15.6517 14.4625 15.9125 14.6547 16.1048C14.847 16.297 15.1078 16.4051 15.3797 16.4051C15.6517 16.4051 15.9125 16.297 16.1048 16.1048C16.297 15.9125 16.4051 15.6517 16.4051 15.3797C16.4051 15.1078 16.297 14.847 16.1048 14.6547C15.9125 14.4625 15.6517 14.3544 15.3797 14.3544Z" fill="#94A3B8"/>
</svg>
