<svg width="18" height="18" viewBox="0 0 18 18" fill="none" xmlns="http://www.w3.org/2000/svg">
<path fill-rule="evenodd" clip-rule="evenodd" d="M5.35443 1.59494C5.0825 1.59494 4.82171 1.70296 4.62942 1.89524C4.43714 2.08753 4.32911 2.34832 4.32911 2.62025V16.4051H13.6709V2.62025C13.6709 2.34832 13.5629 2.08753 13.3706 1.89524C13.1783 1.70296 12.9175 1.59494 12.6456 1.59494H5.35443ZM15.2658 16.4051V2.62025C15.2658 1.92532 14.9898 1.25885 14.4984 0.767454C14.007 0.276062 13.3405 0 12.6456 0H5.35443C4.6595 0 3.99302 0.276061 3.50163 0.767454C3.01024 1.25885 2.73418 1.92532 2.73418 2.62025V16.4051H0.797468C0.357039 16.4051 0 16.7621 0 17.2025C0 17.643 0.357039 18 0.797468 18H17.2025C17.643 18 18 17.643 18 17.2025C18 16.7621 17.643 16.4051 17.2025 16.4051H15.2658ZM10.8228 8.20253C11.2632 8.20253 11.6203 8.55957 11.6203 9V9.00911C11.6203 9.44954 11.2632 9.80658 10.8228 9.80658C10.3824 9.80658 10.0253 9.44954 10.0253 9.00911V9C10.0253 8.55957 10.3824 8.20253 10.8228 8.20253Z" fill="#94A3B8"/>
</svg>
