<svg xmlns="http://www.w3.org/2000/svg" width="30" height="24" viewBox="0 0 30 24" fill="none">
<g clip-path="url(#clip0_122_2149)">
<path d="M0.00463867 0H30.0046V24H0.00463867V0Z" fill="#3F9C35"/>
<path d="M0.00463867 0H30.0046V16H0.00463867V0Z" fill="#ED2939"/>
<path d="M0.00463867 0H30.0046V8H0.00463867V0Z" fill="#00B9E4"/>
<path d="M14.25 15.6C16.114 15.6 17.625 13.9882 17.625 12C17.625 10.0118 16.114 8.39999 14.25 8.39999C12.386 8.39999 10.875 10.0118 10.875 12C10.875 13.9882 12.386 15.6 14.25 15.6Z" fill="white"/>
<path d="M15 15C16.5533 15 17.8125 13.6569 17.8125 12C17.8125 10.3431 16.5533 9 15 9C13.4467 9 12.1875 10.3431 12.1875 12C12.1875 13.6569 13.4467 15 15 15Z" fill="#ED2939"/>
<path d="M18 10L18.3609 11.075L19.3266 10.585L18.8672 11.62L19.875 12L18.8672 12.385L19.3266 13.415L18.3609 12.925L18 14L17.6391 12.925L16.6734 13.415L17.1328 12.385L16.125 12L17.1328 11.615L16.6734 10.585L17.6391 11.075L18 10Z" fill="white"/>
</g>
<defs>
<clipPath id="clip0_122_2149">
<rect width="30" height="24" rx="4" fill="white"/>
</clipPath>
</defs>
</svg>