<svg xmlns="http://www.w3.org/2000/svg" width="96" height="96" viewBox="0 0 96 96" fill="none">
<path d="M93.6689 42.3425L87.1214 35.7964C85.5674 34.2424 84.294 31.1716 84.294 28.9694V19.7115C84.294 15.3075 80.6962 11.7098 76.2933 11.7075H67.0314C64.8317 11.7075 61.7573 10.4317 60.2031 8.879L53.6568 2.33282C50.5463 -0.777607 45.4534 -0.777607 42.3429 2.33282L35.7966 8.88368C34.2412 10.4376 31.1633 11.7098 28.9683 11.7098H19.7102C15.312 11.7098 11.7095 15.3075 11.7095 19.7115V28.9696C11.7095 31.1632 10.4363 34.2436 8.88213 35.7966L2.33463 42.3428C-0.778211 45.4532 -0.778211 50.546 2.33463 53.6613L8.88213 60.2075C10.4373 61.7614 11.7095 64.8407 11.7095 67.0345V76.2926C11.7095 80.6919 15.312 84.2943 19.7102 84.2943H28.9685C31.1682 84.2943 34.2426 85.5674 35.7968 87.1204L42.3431 93.6689C45.4536 96.777 50.5466 96.777 53.6571 93.6689L60.2034 87.1204C61.7588 85.5665 64.832 84.2943 67.0317 84.2943H76.2936C80.6964 84.2943 84.2942 80.6919 84.2942 76.2926V67.0345C84.2942 64.8313 85.5686 61.7605 87.1216 60.2075L93.6691 53.6613C96.777 50.546 96.777 45.453 93.6689 42.3425ZM44.8315 62.8193C43.0741 64.5765 40.2249 64.5762 38.4677 62.8188L26.8263 51.1762C25.2643 49.614 25.2645 47.0813 26.8268 45.5194C28.3888 43.9577 30.9211 43.9578 32.483 45.5197L41.6508 54.6872L63.5161 32.8276C65.0779 31.2662 67.6099 31.2663 69.1715 32.828C70.7334 34.3899 70.7333 36.9223 69.1712 38.4841L44.8315 62.8193Z" fill="#22D3EE"/>
</svg>