<svg xmlns="http://www.w3.org/2000/svg" width="18" height="22" viewBox="0 0 18 22" fill="none">
<path fill-rule="evenodd" clip-rule="evenodd" d="M3.375 10.1667C3.07663 10.1667 2.79048 10.2808 2.5795 10.484C2.36853 10.6871 2.25 10.9627 2.25 11.25V18.75C2.25 19.0373 2.36853 19.3129 2.5795 19.516C2.79048 19.7192 3.07663 19.8333 3.375 19.8333H14.625C14.9234 19.8333 15.2095 19.7192 15.4205 19.516C15.6315 19.3129 15.75 19.0373 15.75 18.75V11.25C15.75 10.9627 15.6315 10.6871 15.4205 10.484C15.2095 10.2808 14.9234 10.1667 14.625 10.1667H3.375ZM0.988515 8.9519C1.62145 8.34241 2.47989 8 3.375 8H14.625C15.5201 8 16.3785 8.34241 17.0115 8.9519C17.6444 9.5614 18 10.388 18 11.25V18.75C18 19.612 17.6444 20.4386 17.0115 21.0481C16.3785 21.6576 15.5201 22 14.625 22H3.375C2.47989 22 1.62145 21.6576 0.988515 21.0481C0.355579 20.4386 0 19.612 0 18.75V11.25C0 10.388 0.355579 9.5614 0.988515 8.9519Z" fill="#1E293B"/>
<path fill-rule="evenodd" clip-rule="evenodd" d="M7.58579 13.5858C7.96086 13.2107 8.46957 13 9 13C9.53043 13 10.0391 13.2107 10.4142 13.5858C10.7893 13.9609 11 14.4696 11 15C11 15.5304 10.7893 16.0391 10.4142 16.4142C10.0391 16.7893 9.53043 17 9 17C8.46957 17 7.96086 16.7893 7.58579 16.4142C7.21071 16.0391 7 15.5304 7 15C7 14.4696 7.21071 13.9609 7.58579 13.5858Z" fill="#1E293B"/>
<path fill-rule="evenodd" clip-rule="evenodd" d="M9 2C8.20435 2 7.44129 2.31607 6.87868 2.87868C6.31607 3.44129 6 4.20435 6 5V9C6 9.55229 5.55228 10 5 10C4.44772 10 4 9.55229 4 9V5C4 3.67392 4.52678 2.40215 5.46447 1.46447C6.40215 0.526784 7.67392 0 9 0C10.3261 0 11.5979 0.526784 12.5355 1.46447C13.4732 2.40215 14 3.67392 14 5V9C14 9.55229 13.5523 10 13 10C12.4477 10 12 9.55229 12 9V5C12 4.20435 11.6839 3.44129 11.1213 2.87868C10.5587 2.31607 9.79565 2 9 2Z" fill="#1E293B"/>
</svg>
