<svg width="18" height="18" viewBox="0 0 18 18" fill="none" xmlns="http://www.w3.org/2000/svg">
<path fill-rule="evenodd" clip-rule="evenodd" d="M4.28571 0C4.7591 0 5.14286 0.383756 5.14286 0.857143V1.71429H10.2857V0.857143C10.2857 0.383756 10.6695 0 11.1429 0C11.6162 0 12 0.383756 12 0.857143V1.71429H12.8571C13.5391 1.71429 14.1932 1.9852 14.6754 2.46744C15.1577 2.94968 15.4286 3.60373 15.4286 4.28571V7.71429C15.4286 8.18767 15.0448 8.57143 14.5714 8.57143H1.71429V14.5714C1.71429 14.7988 1.80459 15.0168 1.96534 15.1775C2.12608 15.3383 2.3441 15.4286 2.57143 15.4286H8.39571C8.8691 15.4286 9.25286 15.8123 9.25286 16.2857C9.25286 16.7591 8.8691 17.1429 8.39571 17.1429H2.57143C1.88944 17.1429 1.23539 16.8719 0.753154 16.3897C0.270918 15.9075 0 15.2534 0 14.5714V4.28571C0 3.60373 0.270917 2.94968 0.753154 2.46744C1.23539 1.9852 1.88944 1.71429 2.57143 1.71429H3.42857V0.857143C3.42857 0.383756 3.81233 0 4.28571 0ZM3.42857 3.42857H2.57143C2.3441 3.42857 2.12608 3.51888 1.96534 3.67962C1.80459 3.84037 1.71429 4.05839 1.71429 4.28571V6.85714H13.7143V4.28571C13.7143 4.05839 13.624 3.84037 13.4632 3.67962C13.3025 3.51888 13.0845 3.42857 12.8571 3.42857H12V4.28571C12 4.7591 11.6162 5.14286 11.1429 5.14286C10.6695 5.14286 10.2857 4.7591 10.2857 4.28571V3.42857H5.14286V4.28571C5.14286 4.7591 4.7591 5.14286 4.28571 5.14286C3.81233 5.14286 3.42857 4.7591 3.42857 4.28571V3.42857ZM10.6838 10.6838C11.4876 9.8801 12.5776 9.42857 13.7143 9.42857C14.8509 9.42857 15.941 9.8801 16.7447 10.6838C17.5485 11.4876 18 12.5776 18 13.7143C18 14.8509 17.5485 15.941 16.7447 16.7447C15.941 17.5485 14.8509 18 13.7143 18C12.5776 18 11.4876 17.5485 10.6838 16.7447C9.8801 15.941 9.42857 14.8509 9.42857 13.7143C9.42857 12.5776 9.8801 11.4876 10.6838 10.6838ZM13.7143 11.1429C13.0323 11.1429 12.3782 11.4138 11.896 11.896C11.4138 12.3782 11.1429 13.0323 11.1429 13.7143C11.1429 14.3963 11.4138 15.0503 11.896 15.5326C12.3782 16.0148 13.0323 16.2857 13.7143 16.2857C14.3963 16.2857 15.0503 16.0148 15.5326 15.5326C16.0148 15.0503 16.2857 14.3963 16.2857 13.7143C16.2857 13.0323 16.0148 12.3782 15.5326 11.896C15.0503 11.4138 14.3963 11.1429 13.7143 11.1429ZM13.7143 11.568C14.1877 11.568 14.5714 11.9518 14.5714 12.4251V13.3592L15.1775 13.9653C15.5123 14.3001 15.5123 14.8428 15.1775 15.1775C14.8428 15.5123 14.3001 15.5123 13.9653 15.1775L13.1082 14.3204C12.9474 14.1596 12.8571 13.9416 12.8571 13.7143V12.4251C12.8571 11.9518 13.2409 11.568 13.7143 11.568Z" fill="white"/>
</svg>
