<svg width="16" height="18" viewBox="0 0 16 18" fill="none" xmlns="http://www.w3.org/2000/svg">
<path fill-rule="evenodd" clip-rule="evenodd" d="M4.44444 0C4.93536 0 5.33333 0.402944 5.33333 0.9V1.8H10.6667V0.9C10.6667 0.402944 11.0646 0 11.5556 0C12.0465 0 12.4444 0.402944 12.4444 0.9V1.8H13.3333C14.0406 1.8 14.7189 2.08446 15.219 2.59081C15.719 3.09716 16 3.78391 16 4.5V15.3C16 16.0161 15.719 16.7028 15.219 17.2092C14.7189 17.7155 14.0406 18 13.3333 18H2.66667C1.95942 18 1.28115 17.7155 0.781049 17.2092C0.280952 16.7028 0 16.0161 0 15.3V4.5C0 3.78392 0.280951 3.09716 0.781049 2.59081C1.28115 2.08446 1.95942 1.8 2.66667 1.8H3.55556V0.9C3.55556 0.402944 3.95352 0 4.44444 0ZM3.55556 3.6H2.66667C2.43092 3.6 2.20483 3.69482 2.03813 3.8636C1.87143 4.03239 1.77778 4.2613 1.77778 4.5V7.2H14.2222V4.5C14.2222 4.26131 14.1286 4.03239 13.9619 3.8636C13.7952 3.69482 13.5691 3.6 13.3333 3.6H12.4444V4.5C12.4444 4.99706 12.0465 5.4 11.5556 5.4C11.0646 5.4 10.6667 4.99706 10.6667 4.5V3.6H5.33333V4.5C5.33333 4.99706 4.93536 5.4 4.44444 5.4C3.95352 5.4 3.55556 4.99706 3.55556 4.5V3.6ZM14.2222 9H1.77778V15.3C1.77778 15.5387 1.87143 15.7676 2.03813 15.9364C2.20483 16.1052 2.43092 16.2 2.66667 16.2H13.3333C13.5691 16.2 13.7952 16.1052 13.9619 15.9364C14.1286 15.7676 14.2222 15.5387 14.2222 15.3V9ZM3.55556 11.7C3.55556 11.2029 3.95352 10.8 4.44444 10.8H6.22222C6.71314 10.8 7.11111 11.2029 7.11111 11.7V13.5C7.11111 13.9971 6.71314 14.4 6.22222 14.4H4.44444C3.95352 14.4 3.55556 13.9971 3.55556 13.5V11.7Z" fill="#94A3B8"/>
</svg>
