<svg width="48" height="48" viewBox="0 0 48 48" fill="none" xmlns="http://www.w3.org/2000/svg">
<rect width="48" height="48" rx="6" fill="#CFFAFE"/>
<path d="M34.8 16.007C34.6978 15.9977 34.5947 15.9977 34.4925 16.007H13.4925C13.3579 16.0089 13.2242 16.0268 13.095 16.0603L23.9325 25.6495L34.8 16.007Z" fill="#06B6D4"/>
<path d="M35.91 16.9333L24.99 26.5957C24.709 26.8439 24.3288 26.9833 23.9325 26.9833C23.5362 26.9833 23.156 26.8439 22.875 26.5957L12.0525 17.0066C12.0192 17.1152 12.0016 17.2272 12 17.3398V30.6673C12 31.0207 12.158 31.3597 12.4393 31.6096C12.7206 31.8596 13.1022 32 13.5 32H34.5C34.8978 32 35.2794 31.8596 35.5607 31.6096C35.842 31.3597 36 31.0207 36 30.6673V17.3398C35.994 17.2009 35.9637 17.0638 35.91 16.9333ZM14.5275 30.6673H13.485V29.7143L18.9375 24.9098L19.995 25.8494L14.5275 30.6673ZM34.485 30.6673H33.435L27.9675 25.8494L29.025 24.9098L34.4775 29.7143L34.485 30.6673Z" fill="#06B6D4"/>
</svg>
