<svg width="40" height="40" viewBox="0 0 40 40" fill="none" xmlns="http://www.w3.org/2000/svg">
<rect x="0.5" y="0.5" width="39" height="39" rx="19.5" stroke="#E2E8F0"/>
<path d="M20.8224 12.001C21.4062 11.9987 21.9899 12.0046 22.5735 12.0186L22.7287 12.0242C22.9079 12.0306 23.0847 12.0386 23.2983 12.0482C24.1494 12.0882 24.7302 12.2226 25.2398 12.4202C25.7678 12.6234 26.2125 12.8986 26.6573 13.3433C27.064 13.743 27.3787 14.2265 27.5797 14.7601C27.7773 15.2697 27.9116 15.8513 27.9516 16.7024C27.9612 16.9152 27.9692 17.0928 27.9756 17.272L27.9804 17.4272C27.9947 18.0105 28.0008 18.594 27.9988 19.1775L27.9996 19.7743V20.8223C28.0016 21.4061 27.9955 21.9898 27.9812 22.5734L27.9764 22.7286C27.97 22.9078 27.962 23.0846 27.9524 23.2982C27.9124 24.1494 27.7765 24.7302 27.5797 25.2397C27.3794 25.7739 27.0646 26.2578 26.6573 26.6573C26.2573 27.0639 25.7736 27.3787 25.2398 27.5797C24.7302 27.7772 24.1494 27.9116 23.2983 27.9516C23.0847 27.9612 22.9079 27.9692 22.7287 27.9756L22.5735 27.9804C21.9899 27.9947 21.4062 28.0008 20.8224 27.9988L20.2256 27.9996H19.1785C18.5947 28.0016 18.011 27.9955 17.4274 27.9812L17.2722 27.9764C17.0823 27.9696 16.8924 27.9616 16.7026 27.9524C15.8515 27.9124 15.2707 27.7764 14.7603 27.5797C14.2265 27.3791 13.743 27.0643 13.3436 26.6573C12.9364 26.2575 12.6214 25.7738 12.4204 25.2397C12.2229 24.7302 12.0885 24.1494 12.0485 23.2982C12.0395 23.1084 12.0316 22.9185 12.0245 22.7286L12.0205 22.5734C12.0057 21.9898 11.999 21.4061 12.0005 20.8223V19.1775C11.9982 18.594 12.0041 18.0105 12.0181 17.4272L12.0237 17.272C12.0301 17.0928 12.0381 16.9152 12.0477 16.7024C12.0877 15.8505 12.2221 15.2705 12.4196 14.7601C12.6207 14.2262 12.9364 13.7429 13.3444 13.3441C13.7435 12.9368 14.2267 12.6214 14.7603 12.4202C15.2707 12.2226 15.8507 12.0882 16.7026 12.0482L17.2722 12.0242L17.4274 12.0202C18.0107 12.0054 18.5942 11.9988 19.1777 12.0002L20.8224 12.001ZM20.0001 16.0008C19.4701 15.9934 18.9439 16.0913 18.4521 16.2889C17.9603 16.4865 17.5127 16.7799 17.1353 17.1521C16.7579 17.5242 16.4582 17.9676 16.2536 18.4566C16.049 18.9455 15.9437 19.4703 15.9437 20.0003C15.9437 20.5303 16.049 21.0551 16.2536 21.5441C16.4582 22.033 16.7579 22.4764 17.1353 22.8486C17.5127 23.2207 17.9603 23.5141 18.4521 23.7117C18.9439 23.9094 19.4701 24.0073 20.0001 23.9998C21.0609 23.9998 22.0782 23.5784 22.8283 22.8282C23.5784 22.0781 23.9998 21.0607 23.9998 19.9999C23.9998 18.9391 23.5784 17.9217 22.8283 17.1716C22.0782 16.4215 21.0609 16.0008 20.0001 16.0008ZM20.0001 17.6008C20.3188 17.5949 20.6356 17.6526 20.9318 17.7706C21.2281 17.8885 21.4978 18.0643 21.7254 18.2876C21.9529 18.511 22.1337 18.7774 22.2571 19.0714C22.3805 19.3654 22.4441 19.6811 22.4441 19.9999C22.4442 20.3188 22.3807 20.6344 22.2574 20.9285C22.1341 21.2225 21.9534 21.489 21.726 21.7124C21.4985 21.9359 21.2288 22.1117 20.9326 22.2298C20.6364 22.3478 20.3196 22.4056 20.0009 22.3998C19.3644 22.3998 18.7539 22.147 18.3039 21.6969C17.8538 21.2468 17.601 20.6364 17.601 19.9999C17.601 19.3634 17.8538 18.753 18.3039 18.3029C18.7539 17.8528 19.3644 17.6 20.0009 17.6L20.0001 17.6008ZM24.1998 14.8009C23.9418 14.8112 23.6977 14.921 23.5188 15.1073C23.3398 15.2935 23.2399 15.5418 23.2399 15.8001C23.2399 16.0583 23.3398 16.3066 23.5188 16.4929C23.6977 16.6791 23.9418 16.7889 24.1998 16.7992C24.465 16.7992 24.7194 16.6939 24.9069 16.5063C25.0944 16.3188 25.1998 16.0645 25.1998 15.7993C25.1998 15.534 25.0944 15.2797 24.9069 15.0922C24.7194 14.9046 24.465 14.7993 24.1998 14.7993V14.8009Z" fill="#94A3B8"/>
</svg>
