<svg width="48" height="48" viewBox="0 0 48 48" fill="none" xmlns="http://www.w3.org/2000/svg">
<rect width="48" height="48" rx="6" fill="#CFFAFE"/>
<path d="M30.3637 15.831C32.0159 17.6053 32.9609 20.0002 32.9988 22.5093C33.0367 25.0184 32.1645 27.4449 30.5666 29.2758L30.3637 29.5014L26.1208 34.0571C25.5824 34.6349 24.8597 34.9713 24.099 34.9982C23.3383 35.0252 22.5965 34.7406 22.0239 34.202L21.8799 34.0571L17.636 29.5003C15.9482 27.6876 15 25.2291 15 22.6656C15 20.1022 15.9482 17.6437 17.636 15.831C19.3238 14.0183 21.6129 13 23.9998 13C26.3867 13 28.6759 14.0183 30.3637 15.831ZM23.9998 19.4438C23.6059 19.4438 23.2158 19.5271 22.8518 19.689C22.4878 19.8509 22.1571 20.0883 21.8786 20.3874C21.6 20.6866 21.379 21.0418 21.2283 21.4327C21.0775 21.8236 20.9999 22.2425 20.9999 22.6656C20.9999 23.0887 21.0775 23.5077 21.2283 23.8986C21.379 24.2895 21.6 24.6447 21.8786 24.9438C22.1571 25.243 22.4878 25.4803 22.8518 25.6422C23.2158 25.8042 23.6059 25.8875 23.9998 25.8875C24.7954 25.8875 25.5585 25.5481 26.1211 24.9438C26.6837 24.3396 26.9997 23.5201 26.9997 22.6656C26.9997 21.8111 26.6837 20.9917 26.1211 20.3874C25.5585 19.7832 24.7954 19.4438 23.9998 19.4438Z" fill="#06B6D4"/>
</svg>
