<svg width="22" height="22" viewBox="0 0 22 22" fill="none" xmlns="http://www.w3.org/2000/svg">
<path d="M12.4854 5.7794C12.0172 5.69174 11.7088 5.24057 11.7965 4.77287C11.8841 4.30472 12.3353 3.99629 12.803 4.08395C13.4074 4.19778 13.9884 4.39881 14.525 4.67511C15.0628 4.95187 15.5594 5.30666 15.9954 5.72983C16.4301 6.15117 16.7954 6.63401 17.0804 7.15816C17.3668 7.68552 17.5724 8.25235 17.6853 8.83846C17.7748 9.30661 17.4678 9.75916 16.9996 9.84866C16.5315 9.93816 16.079 9.63111 15.9895 9.16296C15.9096 8.74713 15.7655 8.34874 15.5668 7.98248C15.3658 7.613 15.1051 7.26923 14.7925 6.96631C14.4809 6.66384 14.1229 6.40819 13.7346 6.20854C13.345 6.00797 12.9232 5.86202 12.4854 5.7794ZM0.000458953 3.14305C0.000458953 2.30956 0.331823 1.51002 0.921119 0.920702C1.51042 0.331838 2.30991 0 3.14337 0H4.58081C5.48174 0 6.26701 0.614107 6.48593 1.48753L7.64341 6.12179C7.73749 6.49678 7.71913 6.89058 7.58971 7.25592C7.46029 7.61989 7.22622 7.9375 6.91688 8.16974L5.56251 9.18591C5.42116 9.29147 5.39041 9.4466 5.42988 9.55446C6.02147 11.1622 6.95498 12.6227 8.16661 13.8339C9.37779 15.0456 10.8382 15.9792 12.4459 16.5708C12.5538 16.6103 12.708 16.58 12.8144 16.4382L13.8306 15.0837C14.0628 14.7744 14.3804 14.5403 14.7443 14.4109C15.1092 14.2814 15.5034 14.2626 15.8789 14.3562L20.512 15.5142C21.3854 15.7332 21.9995 16.5185 21.9995 17.4208V18.8569C21.9995 19.6904 21.6681 20.4895 21.0788 21.0793C20.489 21.6682 19.69 22 18.8566 22H16.4994C7.38731 22 0 14.6124 0 5.49989V3.14259L0.000458953 3.14305ZM12.5597 1.72023C12.0861 1.67388 11.74 1.25162 11.7864 0.777961C11.8327 0.3043 12.255 -0.0417666 12.7286 0.00458974C13.9031 0.123005 15.0408 0.432354 16.0946 0.911522C17.1511 1.38977 18.1241 2.04243 18.9676 2.84426C19.8116 3.64701 20.501 4.57781 21.0127 5.58984C21.5258 6.60555 21.8609 7.7048 21.9944 8.84167C22.0481 9.31534 21.7085 9.74356 21.2349 9.79772C20.7612 9.85142 20.333 9.51178 20.2789 9.03812C20.1692 8.1041 19.8938 7.2013 19.4725 6.36689C19.0493 5.52972 18.4784 4.7591 17.7789 4.09405C17.0786 3.42762 16.2681 2.88465 15.3869 2.48397L15.3832 2.4803C14.5011 2.07869 13.5469 1.81937 12.5597 1.71978V1.72023Z" fill="#0891B2"/>
</svg>
