<svg width="48" height="48" viewBox="0 0 48 48" fill="none" xmlns="http://www.w3.org/2000/svg">
<rect width="48" height="48" rx="6" fill="#CFFAFE"/>
<path d="M25.3503 19.254C24.9248 19.1743 24.6444 18.7642 24.7241 18.339C24.8038 17.9134 25.2139 17.633 25.6391 17.7127C26.1885 17.8162 26.7168 17.9989 27.2045 18.2501C27.6935 18.5017 28.1449 18.8242 28.5413 19.2089C28.9364 19.592 29.2685 20.0309 29.5276 20.5074C29.788 20.9868 29.9749 21.5021 30.0776 22.035C30.1589 22.4606 29.8798 22.872 29.4542 22.9533C29.0286 23.0347 28.6172 22.7556 28.5359 22.33C28.4633 21.9519 28.3323 21.5898 28.1516 21.2568C27.9689 20.9209 27.7319 20.6084 27.4477 20.333C27.1644 20.058 26.839 19.8256 26.486 19.6441C26.1318 19.4618 25.7484 19.3291 25.3503 19.254ZM14.0004 16.8573C14.0004 16.0996 14.3017 15.3727 14.8374 14.837C15.3731 14.3017 16.0999 14 16.8576 14H18.1644C18.9834 14 19.6973 14.5583 19.8963 15.3523L20.9486 19.5653C21.0341 19.9062 21.0174 20.2642 20.8997 20.5963C20.7821 20.9272 20.5693 21.2159 20.2881 21.427L19.0568 22.3508C18.9283 22.4468 18.9004 22.5878 18.9363 22.6859C19.4741 24.1475 20.3227 25.4752 21.4242 26.5763C22.5253 27.6778 23.8529 28.5265 25.3145 29.0644C25.4125 29.1002 25.5527 29.0727 25.6495 28.9438L26.5732 27.7125C26.7844 27.4312 27.0731 27.2185 27.4039 27.1008C27.7356 26.9831 28.094 26.966 28.4353 27.0511L32.6473 28.1039C33.4413 28.3029 33.9995 29.0168 33.9995 29.8371V31.1427C33.9995 31.9004 33.6983 32.6268 33.1625 33.163C32.6264 33.6983 31.9 34 31.1423 34H28.9994C20.7157 34 14 27.284 14 18.9999V16.8569L14.0004 16.8573ZM25.4179 15.5638C24.9873 15.5217 24.6727 15.1378 24.7149 14.7072C24.757 14.2766 25.1409 13.962 25.5715 14.0042C26.6392 14.1118 27.6735 14.393 28.6314 14.8287C29.5919 15.2634 30.4764 15.8568 31.2433 16.5857C32.0106 17.3155 32.6373 18.1616 33.1025 19.0817C33.5689 20.005 33.8735 21.0044 33.9949 22.0379C34.0437 22.4685 33.735 22.8578 33.3044 22.907C32.8738 22.9558 32.4846 22.6471 32.4353 22.2165C32.3356 21.3674 32.0853 20.5466 31.7022 19.7881C31.3176 19.027 30.7985 18.3265 30.1627 17.7219C29.526 17.116 28.7891 16.6224 27.9881 16.2582L27.9847 16.2548C27.1828 15.8897 26.3154 15.654 25.4179 15.5634V15.5638Z" fill="#06B6D4"/>
</svg>
