<svg width="56" height="56" viewBox="0 0 56 56" fill="none" xmlns="http://www.w3.org/2000/svg">
<rect width="56" height="56" rx="4" fill="#CFFAFE"/>
<path d="M29.8512 14.358C27.0884 15.4675 26.2189 13.8032 23.9058 14.0444C19.6653 14.4882 17.4551 20.3157 20.235 24.175C20.7576 24.9083 21.1516 27.19 21.4258 28.0825C21.5535 28.4798 21.7861 28.8236 22.0924 29.0677C22.3987 29.3118 22.7639 29.4444 23.1391 29.4477H32.8452C33.2204 29.4444 33.5857 29.3118 33.892 29.0677C34.1983 28.8236 34.4309 28.4798 34.5586 28.0825C34.8327 27.19 35.2268 24.9083 35.7494 24.175C39.1889 19.3895 34.9784 12.327 29.8512 14.358ZM32.1813 16.4564C30.9047 17.2709 29.4677 17.7137 28.0007 17.7445C26.5338 17.7137 25.0968 17.2709 23.8202 16.4564C23.7426 16.3831 23.6906 16.2812 23.6734 16.1688C23.6563 16.0563 23.675 15.9407 23.7264 15.8424C23.7777 15.744 23.8584 15.6694 23.9539 15.6317C24.0495 15.594 24.1539 15.5956 24.2485 15.6364C26.9556 17.1608 29.0116 17.1608 31.7187 15.6364C31.7665 15.6021 31.8199 15.5789 31.8757 15.5679C31.9314 15.5569 31.9886 15.5584 32.0439 15.5722C32.0992 15.5861 32.1515 15.6121 32.1979 15.6488C32.2442 15.6855 32.2837 15.732 32.3141 15.7859C32.3445 15.8397 32.3651 15.8998 32.3749 15.9626C32.3847 16.0255 32.3833 16.0899 32.371 16.1521C32.3587 16.2144 32.3356 16.2733 32.303 16.3255C32.2705 16.3778 32.2291 16.4222 32.1813 16.4564ZM26.3088 42H29.7141L30.2367 40.876L25.525 40.2489C25.7434 40.7843 26.0047 41.3439 26.3088 42ZM32.751 31.8694L32.1728 31.8115L32.2584 30.4222H23.7431L23.7731 30.9528L23.3447 30.9046C23.2311 30.8931 23.1181 30.9329 23.0306 31.0152C22.943 31.0975 22.8881 31.2156 22.8778 31.3436C22.8676 31.4715 22.9029 31.5988 22.976 31.6974C23.0491 31.796 23.154 31.8579 23.2676 31.8694L32.691 32.8342C32.8046 32.8432 32.9167 32.8009 33.0027 32.7168C33.0887 32.6327 33.1414 32.5135 33.1494 32.3856C33.1573 32.2576 33.1198 32.1314 33.0451 32.0346C32.9704 31.9378 32.8646 31.8784 32.751 31.8694ZM32.751 34.2815L32.0271 34.2091L32.0571 33.7267L23.893 32.9018L23.923 33.3842L23.3276 33.3166C23.214 33.3051 23.101 33.3449 23.0134 33.4272C22.9259 33.5096 22.8709 33.6277 22.8607 33.7556C22.8505 33.8836 22.8858 34.0109 22.9589 34.1095C23.032 34.2081 23.1369 34.2699 23.2505 34.2815L32.6739 35.2463C32.7875 35.2578 32.9005 35.218 32.9881 35.1357C33.0756 35.0534 33.1306 34.9352 33.1408 34.8073C33.151 34.6793 33.1157 34.5521 33.0426 34.4535C32.9695 34.3548 32.8646 34.293 32.751 34.2815ZM32.327 36.6935L31.8986 36.6453L31.9286 36.1339L24.0429 35.3283L24.0686 35.7673L23.7602 35.7287C23.6466 35.7159 23.5331 35.7544 23.4448 35.8359C23.3564 35.9173 23.3004 36.0349 23.289 36.1629C23.2777 36.2908 23.3119 36.4186 23.3842 36.5181C23.4565 36.6176 23.5609 36.6807 23.6745 36.6935L32.2413 37.6583C32.3549 37.6711 32.4683 37.6326 32.5567 37.5511C32.6451 37.4697 32.7011 37.3521 32.7125 37.2241C32.7238 37.0962 32.6896 36.9684 32.6173 36.8689C32.545 36.7694 32.4406 36.7063 32.327 36.6935ZM31.4788 39.1055L31.0505 39.0477L31.2989 38.5122L24.3213 37.7307L24.5312 38.2131L24.1971 38.1407C24.0835 38.1254 23.9691 38.1615 23.8792 38.2411C23.7892 38.3207 23.731 38.4373 23.7174 38.5652C23.7037 38.6932 23.7358 38.822 23.8065 38.9233C23.8772 39.0246 23.9807 39.0902 24.0943 39.1055L31.376 40.0704C31.4896 40.0857 31.604 40.0496 31.694 39.97C31.7839 39.8904 31.8421 39.7738 31.8558 39.6458C31.8694 39.5179 31.8374 39.3891 31.7667 39.2878C31.696 39.1864 31.5924 39.1209 31.4788 39.1055Z" fill="#06B6D4"/>
</svg>
