<svg width="18" height="14" viewBox="0 0 18 14" fill="none" xmlns="http://www.w3.org/2000/svg">
<path d="M16.4654 0.123596C16.4654 0.123596 18.1305 -0.482404 17.9918 0.989311C17.9455 1.59532 17.5293 3.71632 17.2055 6.01048L16.0954 12.8064C16.0954 12.8064 16.0029 13.8019 15.1703 13.9751C14.3377 14.1482 13.0889 13.3691 12.8576 13.1959C12.6726 13.0661 9.38863 11.1182 8.23226 10.1659C7.90847 9.90619 7.53844 9.38675 8.2785 8.78075L13.1352 4.4522C13.6902 3.93276 14.2452 2.72076 11.9325 4.19248L5.45704 8.30464C5.45704 8.30464 4.71699 8.73747 3.3294 8.34791L0.322895 7.48219C0.322895 7.48219 -0.787195 6.83292 1.10921 6.1836C5.73459 4.14916 11.4238 2.07144 16.4654 0.123596Z" fill="white"/>
</svg>
