<svg width="48" height="48" viewBox="0 0 48 48" fill="none" xmlns="http://www.w3.org/2000/svg">
<rect width="48" height="48" rx="6" fill="#D4F7E1"/>
<path d="M33.3506 18.0971C30.0649 12.9979 23.3361 11.487 18.1324 14.6504C13.0544 17.8138 11.4193 24.7072 14.7051 29.7906L14.9724 30.1998L13.8719 34.3233L17.9909 33.2216L18.3996 33.4891C20.1761 34.4492 22.1099 35 24.0279 35C26.0874 35 28.1469 34.4492 29.9234 33.3475C35.0014 30.0424 36.5106 23.2907 33.3506 18.0656V18.0971ZM30.4736 28.7047C29.9234 29.5231 29.2317 30.0739 28.2726 30.2156C27.7224 30.2156 27.0307 30.4831 24.2951 29.3972C21.9684 28.2955 20.0347 26.5013 18.6669 24.4396C17.8494 23.4796 17.4249 22.2363 17.2991 20.993C17.2991 19.8913 17.7079 18.9312 18.3996 18.2388C18.6669 17.9712 18.9499 17.8296 19.2171 17.8296H19.9089C20.1761 17.8296 20.4591 17.8296 20.6006 18.3804C20.8679 19.0729 21.5596 20.7254 21.5596 20.867C21.7011 21.0087 21.6382 22.0632 21.0094 22.6612C20.6635 23.0547 20.6006 23.0704 20.7421 23.3537C21.2924 24.1721 21.9841 25.0062 22.6601 25.6987C23.4776 26.3912 24.3109 26.942 25.2699 27.3512C25.5371 27.4929 25.8201 27.4929 25.9616 27.2096C26.1031 26.942 26.7791 26.2495 27.0621 25.9662C27.3294 25.6987 27.4709 25.6987 27.7538 25.8246L29.9548 26.9263C30.2221 27.0679 30.5051 27.1938 30.6466 27.3355C30.7881 27.7447 30.7881 28.2955 30.5051 28.7047H30.4736Z" fill="#25D366"/>
</svg>
