<svg width="20" height="14" viewBox="0 0 20 14" fill="none" xmlns="http://www.w3.org/2000/svg">
<path d="M19.5825 2.15935C19.4663 1.74335 19.2449 1.36445 18.9396 1.05933C18.6344 0.754207 18.2556 0.533209 17.8401 0.417734C16.2802 1.99704e-05 10.0095 2.00714e-05 10.0095 2.00714e-05C10.0095 2.00714e-05 3.75073 -0.0100002 2.17462 0.417734C1.75974 0.533716 1.38175 0.754946 1.07717 1.06004C0.772597 1.36513 0.551744 1.74377 0.435958 2.15935C0.139742 3.75895 -0.00614963 5.38284 0.00019855 7.00972C-0.00269177 8.62877 0.143176 10.2446 0.435958 11.8369C0.552118 12.2527 0.773037 12.6316 1.07751 12.9373C1.38197 13.2429 1.75977 13.465 2.17462 13.5823C3.73447 14 10.0095 14 10.0095 14C10.0095 14 16.2646 14 17.8401 13.5823C18.2556 13.4655 18.6341 13.2437 18.9393 12.938C19.2444 12.6323 19.4659 12.2531 19.5825 11.8369C19.8694 10.2456 20.0095 8.62734 19.9995 7.00972C20.0095 5.38145 19.8726 3.76069 19.5825 2.15935ZM8.00642 10.0076V3.99867L13.2261 7.00972L8.00642 10.0076Z" fill="#C3C5CB"/>
</svg>
