<svg width="40" height="40" viewBox="0 0 40 40" fill="none" xmlns="http://www.w3.org/2000/svg">
<rect x="0.5" y="0.5" width="39" height="39" rx="19.5" stroke="#E2E8F0"/>
<path d="M29.5825 15.1594C29.4663 14.7434 29.2449 14.3644 28.9396 14.0593C28.6344 13.7542 28.2556 13.5332 27.8401 13.4177C26.2802 13 20.0095 13 20.0095 13C20.0095 13 13.7507 12.99 12.1746 13.4177C11.7597 13.5337 11.3817 13.7549 11.0772 14.06C10.7726 14.3651 10.5517 14.7438 10.436 15.1594C10.1397 16.759 9.99385 18.3828 10.0002 20.0097C9.99731 21.6288 10.1432 23.2446 10.436 24.8369C10.5521 25.2527 10.773 25.6316 11.0775 25.9373C11.382 26.2429 11.7598 26.465 12.1746 26.5823C13.7345 27 20.0095 27 20.0095 27C20.0095 27 26.2646 27 27.8401 26.5823C28.2556 26.4655 28.6341 26.2437 28.9393 25.938C29.2444 25.6323 29.4659 25.2531 29.5825 24.8369C29.8694 23.2456 30.0095 21.6273 29.9995 20.0097C30.0095 18.3814 29.8726 16.7607 29.5825 15.1594ZM18.0064 23.0076V16.9987L23.2261 20.0097L18.0064 23.0076Z" fill="#94A3B8"/>
</svg>
